# xmcd
#
# Track frame offsets: 
#        150
#        15410
#        32175
#        49309
#        67255
#        84414
#        103719
#        119403
#        136195
#        153288
#        171998
#        188602
#        205990
#
# Disc length: 2991 seconds
#
# Revision: 2
# Processed by: cddbd v1.4PL0 Copyright (c) Steve Scherf et al.
# Submitted via: ExactAudioCopy v0.90b4
#
DISCID=b00bad0d
DTITLE=Shaggy - Midnite Lover
DYEAR=1900
DGENRE=
TTITLE0=My Dream
TTITLE1=Perfect Song
TTITLE2=Tender Love
TTITLE3=Geenie
TTITLE4=Sexy Body Girls
TTITLE5=Piece Of My Heart
TTITLE6=Think Ah So It Go
TTITLE7=Midnite Lover
TTITLE8=Mission
TTITLE9=Way Back Home
TTITLE10=John Doe
TTITLE11=Thank You Lord
TTITLE12=Piece Of My Heart (Urban Remix)
EXTD=
EXTT0=
EXTT1=
EXTT2=
EXTT3=
EXTT4=
EXTT5=
EXTT6=
EXTT7=
EXTT8=
EXTT9=
EXTT10=
EXTT11=
EXTT12=
PLAYORDER=
